<?xml version="1.0" encoding="UTF-8"?>
<svg width="23px" height="14px" viewBox="0 0 23 14" version="1.1" xmlns="http://www.w3.org/2000/svg" xmlns:xlink="http://www.w3.org/1999/xlink">
    <title>Group</title>
    <g id="Page-2" stroke="none" stroke-width="1" fill="none" fill-rule="evenodd">
        <g id="Group" transform="translate(-0.8698, -0.8698)" fill-rule="nonzero">
            <path d="M2.87230153,1.81326486 C2.28741968,1.81326486 1.81327927,2.28740528 1.81327927,2.87228712 C1.81327162,3.15316493 1.92484257,3.42254176 2.12344777,3.62115777 C2.32205297,3.81977377 2.59142372,3.93135938 2.87230153,3.93136702 C3.15318434,3.93136702 3.42256249,3.81978479 3.62117392,3.62116795 C3.81978535,3.42255112 3.93136026,3.15316993 3.93135261,2.87228712 C3.93135261,2.59141196 3.81977342,2.32204114 3.62116199,2.12343511 C3.42255055,1.92482908 3.15317669,1.81325722 2.87230153,1.81326486 L2.87230153,1.81326486 Z" id="Path" fill="#00b77a"></path>
            <path d="M7.68615437,1.81326486 C7.10126786,1.81326486 6.6271192,2.28740062 6.62710329,2.87228712 C6.62710329,3.45718955 7.10125195,3.93135111 7.68615437,3.93136702 C7.96703717,3.93136702 8.23641532,3.81978479 8.43502676,3.62116795 C8.63363819,3.42255112 8.74521309,3.15316993 8.74520545,2.87228712 C8.74520545,2.59141196 8.63362625,2.32204114 8.43501482,2.12343511 C8.23640339,1.92482908 7.96702953,1.81325722 7.68615437,1.81326486 L7.68615437,1.81326486 Z" id="Path" fill="#C84449"></path>
            <path d="M12.4999784,1.81326486 C11.9150965,1.81326486 11.4409561,2.28740528 11.4409561,2.87228712 C11.4409485,3.15316493 11.5525194,3.42254176 11.7511246,3.62115777 C11.9497298,3.81977377 12.2191006,3.93135938 12.4999784,3.93136702 C13.0848921,3.93136702 13.5590583,3.4572008 13.5590583,2.87228712 C13.5590506,2.59140931 13.447465,2.32203856 13.248849,2.12343336 C13.050233,1.92482816 12.7808562,1.81325722 12.4999784,1.81326486 L12.4999784,1.81326486 Z" id="Path" fill="#00b77a"></path>
            <path d="M17.3138312,1.81326486 C16.7289494,1.81326486 16.254809,2.28740528 16.254809,2.87228712 C16.2548013,3.15316493 16.3663723,3.42254176 16.5649775,3.62115777 C16.7635827,3.81977377 17.0329534,3.93135938 17.3138312,3.93136702 C17.594714,3.93136702 17.8640922,3.81978479 18.0627036,3.62116795 C18.261315,3.42255112 18.3728899,3.15316993 18.3728823,2.87228712 C18.3728823,2.59141196 18.2613031,2.32204114 18.0626917,2.12343511 C17.8640802,1.92482908 17.5947064,1.81325722 17.3138312,1.81326486 L17.3138312,1.81326486 Z" id="Path" fill="#C84449"></path>
            <path d="M6.30620666,5.43971949 C6.30620666,6.0246173 5.83205339,6.49877057 5.24715558,6.49877057 C4.66225776,6.49877057 4.18810449,6.0246173 4.18810449,5.43971949 C4.18810449,4.85482167 4.66225776,4.38066841 5.24715558,4.38066841 C5.83205339,4.38066841 6.30620666,4.85482167 6.30620666,5.43971949 Z" id="Path" fill="#00b77a"></path>
            <path d="M10.0610084,4.38066841 C9.7801306,4.38066076 9.51075378,4.49223171 9.31213777,4.69083691 C9.11352176,4.88944211 9.00193616,5.15881286 9.00192851,5.43969067 C9.00192851,5.72057348 9.11351075,5.98995163 9.31212758,6.18856306 C9.51074442,6.38717449 9.78012561,6.4987494 10.0610084,6.49874175 C10.6458949,6.49872584 11.1200307,6.02457718 11.1200307,5.43969067 C11.1200148,4.85481542 10.6458837,4.38068432 10.0610084,4.38066841 L10.0610084,4.38066841 Z" id="Path" fill="#C84449"></path>
            <path d="M15.9338835,5.43971949 C15.9338835,6.0246173 15.4597302,6.49877057 14.8748324,6.49877057 C14.2899346,6.49877057 13.8157814,6.0246173 13.8157814,5.43971949 C13.8157814,4.85482167 14.2899346,4.38066841 14.8748324,4.38066841 C15.4597302,4.38066841 15.9338835,4.85482167 15.9338835,5.43971949 Z" id="Path" fill="#00b77a"></path>
            <path d="M20.7477364,5.43971949 C20.7477364,6.0246173 20.2735831,6.49877057 19.6886853,6.49877057 C19.1037875,6.49877057 18.6296342,6.0246173 18.6296342,5.43971949 C18.6296342,4.85482167 19.1037875,4.38066841 19.6886853,4.38066841 C20.2735831,4.38066841 20.7477364,4.85482167 20.7477364,5.43971949 Z" id="Path" fill="#C84449"></path>
            <path d="M7.68615437,6.88384076 C7.10125661,6.88384076 6.62710329,7.35799408 6.62710329,7.94289184 C6.6271192,8.52778301 7.1012632,9.00192701 7.68615437,9.00194292 C8.27105213,9.00194292 8.74520545,8.5277896 8.74520545,7.94289184 C8.74521309,7.66201169 8.63363727,7.39263346 8.43502501,7.1940212 C8.23641275,6.99540894 7.96703452,6.88383312 7.68615437,6.88384076 L7.68615437,6.88384076 Z" id="Path" fill="#00b77a"></path>
            <path d="M12.4999784,6.88384076 C12.2191032,6.88384076 11.9497324,6.99541995 11.7511264,7.19403139 C11.5525203,7.39264282 11.4409485,7.66201668 11.4409561,7.94289184 C11.4409561,8.52777833 11.9150919,9.001927 12.4999784,9.00194292 C13.0848808,9.00194292 13.5590424,8.52779426 13.5590583,7.94289184 C13.5590583,7.66200904 13.4474761,7.39263088 13.2488592,7.19401945 C13.0502424,6.99540802 12.7808612,6.88383312 12.4999784,6.88384076 L12.4999784,6.88384076 Z" id="Path" fill="#C84449"></path>
            <path d="M17.3138312,6.88384076 C17.0329561,6.88384076 16.7635852,6.99541995 16.5649792,7.19403139 C16.3663732,7.39264282 16.2548013,7.66201668 16.254809,7.94289184 C16.2548089,8.52777833 16.7289447,9.001927 17.3138312,9.00194292 C17.594709,9.00194292 17.8640828,8.89036465 18.0626934,8.69175404 C18.261304,8.49314344 18.3728823,8.22376965 18.3728823,7.94289184 C18.3728899,7.66201169 18.2613141,7.39263346 18.0627019,7.1940212 C17.8640896,6.99540894 17.5947114,6.88383312 17.3138312,6.88384076 L17.3138312,6.88384076 Z" id="Path" fill="#00b77a"></path>
            <path d="M22.1277129,6.88384076 C21.8468301,6.88383312 21.5774489,6.99540802 21.378832,7.19401945 C21.1802152,7.39263088 21.068633,7.66200904 21.068633,7.94289184 C21.0686489,8.52779426 21.5428105,9.00194292 22.1277129,9.00194292 C22.7125994,9.00192701 23.1867351,8.52777835 23.1867351,7.94289184 C23.1867428,7.66201668 23.0751709,7.39264282 22.8765649,7.19403139 C22.6779589,6.99541995 22.408588,6.88384076 22.1277129,6.88384076 L22.1277129,6.88384076 Z" id="Path" fill="#C84449"></path>
            <path d="M6.30620666,10.5102954 C6.30620666,11.0951932 5.83205339,11.5693465 5.24715558,11.5693465 C4.66225776,11.5693465 4.18810449,11.0951932 4.18810449,10.5102954 C4.18810449,9.92539757 4.66225776,9.45124431 5.24715558,9.45124431 C5.83205339,9.45124431 6.30620666,9.92539757 6.30620666,10.5102954 Z" id="Path" fill="#00b77a"></path>
            <path d="M9.31213777,9.76141281 C9.11352176,9.96001801 9.00193616,10.2293888 9.00192851,10.5102666 C9.00192851,10.7911494 9.11351075,11.0605275 9.31212758,11.259139 C9.51074442,11.4577504 9.78012561,11.5693253 10.0610084,11.5693177 C10.6458949,11.5693017 11.1200307,11.0951531 11.1200307,10.5102666 C11.1200148,9.92539132 10.6458837,9.45126022 10.0610084,9.45124431 C9.7801306,9.45123666 9.51075378,9.56280761 9.31213777,9.76141281 Z" id="Path" fill="#C84449"></path>
            <path d="M15.9338835,10.5102954 C15.9338835,11.0951932 15.4597302,11.5693465 14.8748324,11.5693465 C14.2899346,11.5693465 13.8157814,11.0951932 13.8157814,10.5102954 C13.8157814,9.92539757 14.2899346,9.45124431 14.8748324,9.45124431 C15.4597302,9.45124431 15.9338835,9.92539757 15.9338835,10.5102954 Z" id="Path" fill="#00b77a"></path>
            <path d="M20.7477364,10.5102954 C20.7477364,11.0951932 20.2735831,11.5693465 19.6886853,11.5693465 C19.1037875,11.5693465 18.6296342,11.0951932 18.6296342,10.5102954 C18.6296342,9.92539757 19.1037875,9.45124431 19.6886853,9.45124431 C20.2735831,9.45124431 20.7477364,9.92539757 20.7477364,10.5102954 Z" id="Path" fill="#C84449"></path>
            <path d="M2.87230153,11.9544167 C2.59142637,11.9544167 2.32205555,12.0659959 2.12344952,12.2646073 C1.92484349,12.4632187 1.81327162,12.7325926 1.81327927,13.0134677 C1.81327925,13.5983542 2.287415,14.0725029 2.87230151,14.0725188 C3.45719929,14.0725188 3.93135261,13.5983655 3.93135261,13.0134677 C3.93136026,12.7325876 3.81978444,12.4632094 3.62117217,12.2645971 C3.42255991,12.0659848 3.15318169,11.954409 2.87230153,11.9544167 L2.87230153,11.9544167 Z" id="Path" fill="#00b77a"></path>
            <path d="M7.68615437,11.9544167 C7.10125661,11.9544167 6.62710329,12.42857 6.62710329,13.0134677 C6.6271192,13.5983589 7.1012632,14.0725029 7.68615437,14.0725188 C8.27105213,14.0725188 8.74520545,13.5983655 8.74520545,13.0134677 C8.74521309,12.7325876 8.63363727,12.4632094 8.43502501,12.2645971 C8.23641275,12.0659848 7.96703452,11.954409 7.68615437,11.9544167 L7.68615437,11.9544167 Z" id="Path" fill="#C84449"></path>
            <path d="M12.4999784,11.9544167 C12.2191032,11.9544167 11.9497324,12.0659959 11.7511264,12.2646073 C11.5525203,12.4632187 11.4409485,12.7325926 11.4409561,13.0134677 C11.4409561,13.5983542 11.9150919,14.0725029 12.4999784,14.0725188 C13.0848808,14.0725188 13.5590424,13.5983702 13.5590583,13.0134677 C13.5590583,12.7325849 13.4474761,12.4632068 13.2488592,12.2645954 C13.0502424,12.0659839 12.7808612,11.954409 12.4999784,11.9544167 L12.4999784,11.9544167 Z" id="Path" fill="#00b77a"></path>
            <path d="M17.3138312,11.9544167 C17.0329561,11.9544167 16.7635852,12.0659959 16.5649792,12.2646073 C16.3663732,12.4632187 16.2548013,12.7325926 16.254809,13.0134677 C16.2548089,13.5983542 16.7289447,14.0725029 17.3138312,14.0725188 C17.898729,14.0725188 18.3728823,13.5983655 18.3728823,13.0134677 C18.3728899,12.7325876 18.2613141,12.4632094 18.0627019,12.2645971 C17.8640896,12.0659848 17.5947114,11.954409 17.3138312,11.9544167 L17.3138312,11.9544167 Z" id="Path" fill="#C84449"></path>
        </g>
    </g>
</svg>