<svg xmlns="http://www.w3.org/2000/svg" version="1.1"  height="48" xmlns:xlink="http://www.w3.org/1999/xlink" xmlns:svgjs="http://svgjs.dev/svgjs" viewBox="0 0 10.205875120985699 3.025711822112361"><g transform="matrix(1,0,0,1,4.566436439870464,0.9430316923061806)"><g><path d=" M 0.05859375 0.380859375 L 0.399169921875 0.380859375 L 0.399169921875 0.93896484375 L 0.504638671875 0.93896484375 L 0.504638671875 1.1396484375 L 0.05859375 1.1396484375 L 0.05859375 0.93896484375 L 0.1728515625 0.93896484375 L 0.1728515625 0.58154296875 L 0.05859375 0.58154296875 L 0.05859375 0.380859375 M 0.1611328125 0.13623046875 Q 0.1611328125 0.109130859375 0.1710205078125 0.0853271484375 Q 0.180908203125 0.0615234375 0.198486328125 0.0439453125 Q 0.216064453125 0.0263671875 0.2398681640625 0.01611328125 Q 0.263671875 0.005859375 0.29150390625 0.005859375 Q 0.31787109375 0.005859375 0.34130859375 0.01611328125 Q 0.36474609375 0.0263671875 0.38232421875 0.0439453125 Q 0.39990234375 0.0615234375 0.41015625 0.0853271484375 Q 0.42041015625 0.109130859375 0.42041015625 0.13623046875 Q 0.42041015625 0.163330078125 0.41015625 0.1871337890625 Q 0.39990234375 0.2109375 0.38232421875 0.228515625 Q 0.36474609375 0.24609375 0.34130859375 0.25634765625 Q 0.31787109375 0.2666015625 0.29150390625 0.2666015625 Q 0.263671875 0.2666015625 0.2398681640625 0.25634765625 Q 0.216064453125 0.24609375 0.198486328125 0.228515625 Q 0.180908203125 0.2109375 0.1710205078125 0.1871337890625 Q 0.1611328125 0.163330078125 0.1611328125 0.13623046875 M 0.661376953125 0.029296875 L 1.544677734375 0.029296875 L 1.544677734375 0.407958984375 L 1.305908203125 0.407958984375 L 1.305908203125 0.25048828125 L 1.02099609375 0.25048828125 L 1.02099609375 0.469482421875 L 1.241455078125 0.469482421875 L 1.241455078125 0.681884765625 L 1.02099609375 0.681884765625 L 1.02099609375 0.93896484375 L 1.305908203125 0.93896484375 L 1.305908203125 0.741943359375 L 1.544677734375 0.741943359375 L 1.544677734375 1.1396484375 L 0.661376953125 1.1396484375 L 0.661376953125 0.93896484375 L 0.77783203125 0.93896484375 L 0.77783203125 0.25048828125 L 0.661376953125 0.25048828125 L 0.661376953125 0.029296875 M 2.21630859375 0.64306640625 Q 2.184814453125 0.603515625 2.14599609375 0.5833740234375 Q 2.107177734375 0.563232421875 2.054443359375 0.566162109375 Q 2.011962890625 0.563232421875 1.9771728515625 0.577880859375 Q 1.9423828125 0.592529296875 1.9171142578125 0.618896484375 Q 1.891845703125 0.645263671875 1.8779296875 0.6815185546875 Q 1.864013671875 0.7177734375 1.864013671875 0.76318359375 Q 1.864013671875 0.803466796875 1.878662109375 0.83935546875 Q 1.893310546875 0.875244140625 1.9185791015625 0.9012451171875 Q 1.94384765625 0.92724609375 1.9786376953125 0.94189453125 Q 2.013427734375 0.95654296875 2.054443359375 0.95947265625 Q 2.0888671875 0.95654296875 2.1170654296875 0.9451904296875 Q 2.145263671875 0.933837890625 2.167236328125 0.9158935546875 Q 2.189208984375 0.89794921875 2.2049560546875 0.8756103515625 Q 2.220703125 0.853271484375 2.2294921875 0.83349609375 L 2.430908203125 0.88916015625 Q 2.41845703125 0.93310546875 2.3880615234375 0.980712890625 Q 2.357666015625 1.0283203125 2.3089599609375 1.0675048828125 Q 2.26025390625 1.106689453125 2.1932373046875 1.13232421875 Q 2.126220703125 1.157958984375 2.04052734375 1.157958984375 Q 1.953369140625 1.157958984375 1.880126953125 1.1260986328125 Q 1.806884765625 1.09423828125 1.754150390625 1.039306640625 Q 1.701416015625 0.984375 1.6717529296875 0.910400390625 Q 1.64208984375 0.83642578125 1.64208984375 0.75146484375 Q 1.64208984375 0.667236328125 1.6724853515625 0.5950927734375 Q 1.702880859375 0.52294921875 1.75634765625 0.4691162109375 Q 1.809814453125 0.415283203125 1.8834228515625 0.38525390625 Q 1.95703125 0.355224609375 2.04345703125 0.358154296875 Q 2.10498046875 0.355224609375 2.162841796875 0.3720703125 Q 2.220703125 0.388916015625 2.272705078125 0.422607421875 L 2.41845703125 0.422607421875 L 2.41845703125 0.64306640625 L 2.21630859375 0.64306640625 M 2.495361328125 0 L 2.83740234375 0 L 2.83740234375 0.451171875 Q 2.880615234375 0.41162109375 2.9322509765625 0.3892822265625 Q 2.98388671875 0.366943359375 3.046142578125 0.366943359375 Q 3.18310546875 0.366943359375 3.255615234375 0.4434814453125 Q 3.328125 0.52001953125 3.328125 0.667236328125 L 3.328125 0.93896484375 L 3.439453125 0.93896484375 L 3.439453125 1.1396484375 L 3.100341796875 1.1396484375 L 3.100341796875 0.718505859375 Q 3.100341796875 0.65478515625 3.06884765625 0.6181640625 Q 3.037353515625 0.58154296875 2.987548828125 0.58154296875 Q 2.95458984375 0.58154296875 2.915771484375 0.599853515625 Q 2.876953125 0.6181640625 2.83740234375 0.6533203125 L 2.83740234375 0.93896484375 L 2.94873046875 0.93896484375 L 2.94873046875 1.1396484375 L 2.495361328125 1.1396484375 L 2.495361328125 0.93896484375 L 2.612548828125 0.93896484375 L 2.612548828125 0.20068359375 L 2.495361328125 0.20068359375 L 2.495361328125 0 M 3.521484375 0.75732421875 Q 3.521484375 0.674560546875 3.551513671875 0.60205078125 Q 3.58154296875 0.529541015625 3.635009765625 0.475341796875 Q 3.6884765625 0.421142578125 3.762451171875 0.3896484375 Q 3.83642578125 0.358154296875 3.925048828125 0.358154296875 Q 4.013671875 0.358154296875 4.0880126953125 0.3896484375 Q 4.162353515625 0.421142578125 4.2158203125 0.475341796875 Q 4.269287109375 0.529541015625 4.2989501953125 0.60205078125 Q 4.32861328125 0.674560546875 4.32861328125 0.75732421875 Q 4.32861328125 0.840087890625 4.2996826171875 0.9129638671875 Q 4.270751953125 0.98583984375 4.2176513671875 1.0404052734375 Q 4.16455078125 1.094970703125 4.0902099609375 1.12646484375 Q 4.015869140625 1.157958984375 3.925048828125 1.157958984375 Q 3.83349609375 1.157958984375 3.7591552734375 1.12646484375 Q 3.684814453125 1.094970703125 3.632080078125 1.040771484375 Q 3.579345703125 0.986572265625 3.5504150390625 0.9136962890625 Q 3.521484375 0.8408203125 3.521484375 0.75732421875 M 3.740478515625 0.75732421875 Q 3.740478515625 0.800537109375 3.755126953125 0.8367919921875 Q 3.769775390625 0.873046875 3.7950439453125 0.8994140625 Q 3.8203125 0.92578125 3.8536376953125 0.9404296875 Q 3.886962890625 0.955078125 3.925048828125 0.955078125 Q 3.9638671875 0.955078125 3.9971923828125 0.9407958984375 Q 4.030517578125 0.926513671875 4.0550537109375 0.900146484375 Q 4.07958984375 0.873779296875 4.093505859375 0.8375244140625 Q 4.107421875 0.80126953125 4.107421875 0.75732421875 Q 4.107421875 0.7119140625 4.093505859375 0.67529296875 Q 4.07958984375 0.638671875 4.0550537109375 0.613037109375 Q 4.030517578125 0.58740234375 3.9971923828125 0.5738525390625 Q 3.9638671875 0.560302734375 3.925048828125 0.56103515625 Q 3.886962890625 0.560302734375 3.8536376953125 0.5738525390625 Q 3.8203125 0.58740234375 3.7950439453125 0.613037109375 Q 3.769775390625 0.638671875 3.755126953125 0.67529296875 Q 3.740478515625 0.7119140625 3.740478515625 0.75732421875 M 5.127685546875 0.656982421875 L 4.921875 0.656982421875 L 4.921875 0.57861328125 Q 4.891845703125 0.57861328125 4.866943359375 0.5826416015625 Q 4.842041015625 0.586669921875 4.8233642578125 0.59619140625 Q 4.8046875 0.605712890625 4.7918701171875 0.62255859375 Q 4.779052734375 0.639404296875 4.77392578125 0.664306640625 L 4.77392578125 0.93896484375 L 4.928466796875 0.93896484375 L 4.928466796875 1.1396484375 L 4.433349609375 1.1396484375 L 4.433349609375 0.93896484375 L 4.546875 0.93896484375 L 4.546875 0.58154296875 L 4.434814453125 0.58154296875 L 4.434814453125 0.380859375 L 4.7724609375 0.380859375 L 4.7724609375 0.434326171875 Q 4.8046875 0.40869140625 4.844970703125 0.394775390625 Q 4.88525390625 0.380859375 4.932861328125 0.380859375 Q 4.981201171875 0.380859375 5.032470703125 0.381591796875 Q 5.083740234375 0.38232421875 5.127685546875 0.38232421875 L 5.127685546875 0.656982421875" fill="#F9F9FB" fill-rule="nonzero"></path></g><g></g><g clip-path="url(#SvgjsClipPath1127)"><g clip-path="url(#SvgjsClipPath11268adcf477-8a01-410e-a4b3-f2422dcb3bbd)"><path d=" M -3.936251382527994 -0.4971965268159453 C -4.038065016430939 -0.4971965268159451 -4.1206012743802285 -0.41466026886665563 -4.1206012743802285 -0.31284663496371035 C -4.120602604773641 -0.2639526733624499 -4.101180830049176 -0.21706075264046598 -4.066608518959843 -0.1824865601163212 C -4.032036207870509 -0.14791236759217624 -3.985145344127595 -0.12848804109450357 -3.936251382527164 -0.12848671073728968 C -3.8873565518109983 -0.12848671071919016 -3.8404643993873693 -0.14791044991237873 -3.805891003386356 -0.1824847866348771 C -3.7713176073853414 -0.21705912335737532 -3.751895144089485 -0.26395180426481507 -3.7518964744886656 -0.31284663496371035 C -3.7518964744886656 -0.3617401353734182 -3.7713196852095905 -0.40863101190304263 -3.8058930812273264 -0.4432034671736964 C -3.8404664772450623 -0.47777592244435024 -3.8873578822728785 -0.49719785723322546 -3.93625138259624 -0.4971965268159433 Z" fill="#00b77a" transform="matrix(1,0,0,1,0,0)" fill-rule="nonzero"></path></g><g clip-path="url(#SvgjsClipPath11268adcf477-8a01-410e-a4b3-f2422dcb3bbd)"><path d=" M -3.0982772639058287 -0.4971965268159453 C -3.200091709261666 -0.49719652685363425 -3.282629401634823 -0.4146610802818582 -3.2826321719451554 -0.31284663496371035 C -3.2826321719451554 -0.2110294191759987 -3.2000944795193704 -0.1284894810099343 -3.098277263837587 -0.128486710737288 C -3.049382433188833 -0.12848671071919016 -3.002490280765204 -0.14791044991237873 -2.9679168847641906 -0.1824847866348771 C -2.933343488763176 -0.21705912335737532 -2.9139210254673196 -0.26395180426481507 -2.9139223558665 -0.31284663496371035 C -2.9139223558665 -0.3617401353734182 -2.933345566587424 -0.40863101190304263 -2.967918962605161 -0.4432034671736964 C -3.002492358622897 -0.47777592244435024 -3.049383763650712 -0.49719785723322546 -3.0982772639740745 -0.4971965268159433 Z" fill="#c84449" transform="matrix(1,0,0,1,0,0)" fill-rule="nonzero"></path></g><g clip-path="url(#SvgjsClipPath11268adcf477-8a01-410e-a4b3-f2422dcb3bbd)"><path d=" M -2.2603081614707543 -0.4971965268159453 C -2.3621217953736995 -0.4971965268159451 -2.444658053322989 -0.41466026886665563 -2.444658053322989 -0.31284663496371035 C -2.4446593837164015 -0.2639526733624499 -2.425237608991937 -0.21706075264046598 -2.3906652979026033 -0.1824865601163212 C -2.3560929868132696 -0.14791236759217624 -2.3092021230703557 -0.12848804109450357 -2.2603081614699247 -0.12848671073728968 C -2.158488986840543 -0.12848671073729 -2.075948237244335 -0.21102746033349778 -2.075948237244335 -0.31284663496371035 C -2.075949567601637 -0.361740596563647 -2.0953738940993953 -0.4086314603065251 -2.1299480866236022 -0.4432037713957962 C -2.1645222791478096 -0.47777608248506737 -2.211414199869829 -0.4971978572094467 -2.2603081614702587 -0.4971965268159453 Z" fill="#00b77a" transform="matrix(1,0,0,1,0,0)" fill-rule="nonzero"></path></g><g clip-path="url(#SvgjsClipPath11268adcf477-8a01-410e-a4b3-f2422dcb3bbd)"><path d=" M -1.422334042848588 -0.4971965268159453 C -1.5241476767515327 -0.4971965268159451 -1.6066839347008224 -0.41466026886665563 -1.6066839347008224 -0.31284663496371035 C -1.6066852650942347 -0.2639526733624499 -1.5872634903697702 -0.21706075264046598 -1.5526911792804365 -0.1824865601163212 C -1.5181188681911033 -0.14791236759217624 -1.471228004448189 -0.12848804109450357 -1.422334042847758 -0.12848671073728968 C -1.3734392121315935 -0.12848671071919016 -1.3265470597079645 -0.14791044991237873 -1.2919736637069512 -0.1824847866348771 C -1.2574002677059366 -0.21705912335737532 -1.2379778044100793 -0.26395180426481507 -1.2379791348092608 -0.31284663496371035 C -1.2379791348092608 -0.3617401353734182 -1.2574023455301853 -0.40863101190304263 -1.2919757415479216 -0.4432034671736964 C -1.3265491375656575 -0.47777592244435024 -1.3734405425934724 -0.49719785723322546 -1.4223340429168352 -0.4971965268159433 Z" fill="#c84449" transform="matrix(1,0,0,1,0,0)" fill-rule="nonzero"></path></g><g clip-path="url(#SvgjsClipPath11268adcf477-8a01-410e-a4b3-f2422dcb3bbd)"><path d=" M -3.338492431412013 0.13408058645498733 C -3.338492431412013 0.23589699997050584 -3.4210309259358223 0.3184354944943151 -3.5228473394513404 0.3184354944943151 C -3.624663752966859 0.3184354944943151 -3.707202247490668 0.23589699997050584 -3.707202247490668 0.13408058645498733 C -3.707202247490668 0.032264172939468816 -3.624663752966859 -0.050274321584340365 -3.5228473394513404 -0.050274321584340365 C -3.4210309259358223 -0.050274321584340365 -3.338492431412013 0.032264172939468816 -3.338492431412013 0.13408058645498733 Z" fill="#00b77a" transform="matrix(1,0,0,1,0,0)" fill-rule="nonzero"></path></g><g clip-path="url(#SvgjsClipPath11268adcf477-8a01-410e-a4b3-f2422dcb3bbd)"><path d=" M -2.6848732208291746 -0.050274321584340365 C -2.733767182429604 -0.05027565197797279 -2.780659103151677 -0.030853877253719686 -2.8152332956759767 0.0037184338354587787 C -2.8498074882002777 0.03829074492463691 -2.8692318146981615 0.08518160866746294 -2.8692331450555955 0.1340755702678944 C -2.869233145055594 0.182970401053133 -2.849809405845048 0.22986255346957185 -2.815235069109752 0.26443594945778703 C -2.780660732374454 0.2990093454460019 -2.733768051459825 0.31843180872450105 -2.68487322076093 0.31843047830722004 C -2.5830587755110264 0.318427707996889 -2.500523328939251 0.23589001562373135 -2.50052332897694 0.13407557026789407 C -2.500526099196839 0.03226308384844345 -2.5830607344117356 -0.05027155136555078 -2.6848732208301804 -0.050274321584340365 Z" fill="#c84449" transform="matrix(1,0,0,1,0,0)" fill-rule="nonzero"></path></g><g clip-path="url(#SvgjsClipPath11268adcf477-8a01-410e-a4b3-f2422dcb3bbd)"><path d=" M -1.662549210354773 0.13408058645498733 C -1.662549210354773 0.23589699997050584 -1.745087704878582 0.3184354944943151 -1.8469041183941006 0.3184354944943151 C -1.9487205319096197 0.3184354944943151 -2.0312590264334287 0.23589699997050584 -2.0312590264334287 0.13408058645498733 C -2.0312590264334287 0.032264172939468816 -1.9487205319096197 -0.050274321584340365 -1.8469041183941006 -0.050274321584340365 C -1.745087704878582 -0.050274321584340365 -1.662549210354773 0.032264172939468816 -1.662549210354773 0.13408058645498733 Z" fill="#00b77a" transform="matrix(1,0,0,1,0,0)" fill-rule="nonzero"></path></g><g clip-path="url(#SvgjsClipPath11268adcf477-8a01-410e-a4b3-f2422dcb3bbd)"><path d=" M -0.8245750917326067 0.13408058645498733 C -0.8245750917326067 0.23589699997050584 -0.9071135862564157 0.3184354944943151 -1.0089299997719343 0.3184354944943151 C -1.110746413287453 0.3184354944943151 -1.193284907811262 0.23589699997050584 -1.193284907811262 0.13408058645498733 C -1.193284907811262 0.032264172939468816 -1.110746413287453 -0.050274321584340365 -1.0089299997719343 -0.050274321584340365 C -0.9071135862564157 -0.050274321584340365 -0.8245750917326067 0.032264172939468816 -0.8245750917326067 0.13408058645498733 Z" fill="#c84449" transform="matrix(1,0,0,1,0,0)" fill-rule="nonzero"></path></g><g clip-path="url(#SvgjsClipPath11268adcf477-8a01-410e-a4b3-f2422dcb3bbd)"><path d=" M -3.0982772639058287 0.38546680261712596 C -3.2000936681724075 0.3854668026171263 -3.2826321719451554 0.4680053063898746 -3.2826321719451554 0.5698217106564536 C -3.2826294017259046 0.6716369674383569 -3.200092520688081 0.7541738484763361 -3.098277263906003 0.7541766186957815 C -2.9964608596392486 0.7541766186957812 -2.9139223558665 0.6716381149230326 -2.9139223558665 0.5698217106564536 C -2.9139210254258816 0.5209273412086226 -2.9333436488010127 0.4740351759707021 -2.967917189011601 0.43946163576055697 C -3.002490729222188 0.40488809555041194 -3.049382894460358 0.3854654721758809 -3.098277263907009 0.38546680261712596 Z" fill="#00b77a" transform="matrix(1,0,0,1,0,0)" fill-rule="nonzero"></path></g><g clip-path="url(#SvgjsClipPath11268adcf477-8a01-410e-a4b3-f2422dcb3bbd)"><path d=" M -2.2603081614707543 0.38546680261712596 C -2.309201661812217 0.3854668025990259 -2.3560925383490314 0.40489001330259167 -2.390664993632484 0.43946340930752914 C -2.4252374489159365 0.4740368053124664 -2.444659383722171 0.5209282103330921 -2.444658053322989 0.5698217106564538 C -2.4446580554685684 0.6716361521955454 -2.3621226106055904 0.7541738462774545 -2.260308165287499 0.7541766186956775 C -2.1584909457512835 0.7541766187334691 -2.075951007554668 0.6716389263382352 -2.075948237244334 0.5698217106564532 C -2.075948237244335 0.520926879871215 -2.0953719764548815 0.4740347274547758 -2.1299463131901772 0.43946133146656063 C -2.1645206499254748 0.4048879354783458 -2.211413330840104 0.38546547219984695 -2.2603081615389993 0.38546680261712796 Z" fill="#c84449" transform="matrix(1,0,0,1,0,0)" fill-rule="nonzero"></path></g><g clip-path="url(#SvgjsClipPath11268adcf477-8a01-410e-a4b3-f2422dcb3bbd)"><path d=" M -1.422334042848588 0.38546680261712596 C -1.4712275431900488 0.3854668025990259 -1.5181184197268651 0.40489001330259167 -1.5526908750103172 0.43946340930752914 C -1.5872633302937698 0.4740368053124664 -1.6066852651000048 0.5209282103330921 -1.6066839347008224 0.5698217106564538 C -1.6066839368464003 0.6716361521955454 -1.5241484919834236 0.7541738462774545 -1.4223340466653323 0.7541766186956775 C -1.3734400812537055 0.7541766186957815 -1.3265486890317737 0.734753568078901 -1.2919754372289582 0.7001803162760851 C -1.2574021854261415 0.665607064473269 -1.2379791348092608 0.6187156722513361 -1.2379791348092608 0.5698217106564536 C -1.237977804368641 0.5209273412086226 -1.2574004277437725 0.47403517597070177 -1.2919739679543603 0.4394616357605563 C -1.3265475081649485 0.4048880955504113 -1.3734396734031185 0.38546547217588056 -1.4223340428497684 0.38546680261712596 Z" fill="#00b77a" transform="matrix(1,0,0,1,0,0)" fill-rule="nonzero"></path></g><g clip-path="url(#SvgjsClipPath11268adcf477-8a01-410e-a4b3-f2422dcb3bbd)"><path d=" M -0.5843549080393289 0.38546680261712596 C -0.6332497387382228 0.3854654722179447 -0.6801424196456631 0.4048879355138021 -0.7147167563681607 0.4394613315148158 C -0.7492910930906596 0.4740347275158294 -0.7687148322838473 0.5209268799394589 -0.7687148322657484 0.5698217106564536 C -0.7687120619558065 0.6716389263375249 -0.6861721237595084 0.7541766187330772 -0.5843549080400394 0.7541766186957812 C -0.4825404627211807 0.7541738483854481 -0.40000501614940465 0.6716361560122908 -0.4000050161870945 0.5698217106564532 C -0.40000368578807866 0.5209282103324631 -0.41942562059447264 0.4740368053119043 -0.45399807587804286 0.4394634093070847 C -0.48857053116161353 0.40489001330226515 -0.5354614076984952 0.385466802598859 -0.5843549080399573 0.3854668026171263 Z" fill="#c84449" transform="matrix(1,0,0,1,0,0)" fill-rule="nonzero"></path></g><g clip-path="url(#SvgjsClipPath11268adcf477-8a01-410e-a4b3-f2422dcb3bbd)"><path d=" M -3.338492431412013 1.0167439158880582 C -3.338492431412013 1.118560329403577 -3.4210309259358223 1.201098823927386 -3.5228473394513404 1.201098823927386 C -3.624663752966859 1.201098823927386 -3.707202247490668 1.118560329403577 -3.707202247490668 1.0167439158880582 C -3.707202247490668 0.9149275023725398 -3.624663752966859 0.8323890078487306 -3.5228473394513404 0.8323890078487306 C -3.4210309259358223 0.8323890078487306 -3.338492431412013 0.9149275023725398 -3.338492431412013 1.0167439158880582 Z" fill="#00b77a" transform="matrix(1,0,0,1,0,0)" fill-rule="nonzero"></path></g><g clip-path="url(#SvgjsClipPath11268adcf477-8a01-410e-a4b3-f2422dcb3bbd)"><path d=" M -2.6848732208291746 0.8323890078487308 C -2.733767182429604 0.8323876774550985 -2.780659103151677 0.8518094521793516 -2.8152332956759767 0.8863817632685298 C -2.8498074882002777 0.920954074357708 -2.8692318146981615 0.9678449381005343 -2.8692331450555955 1.0167388997009654 C -2.869233145055594 1.0656337304862042 -2.849809405845048 1.1125258829026439 -2.815235069109752 1.1470992788908585 C -2.780660732374454 1.1816726748790733 -2.733768051459825 1.2010951381575723 -2.68487322076093 1.2010938077402917 C -2.5830587755110264 1.2010910374299602 -2.500523328939251 1.1185533450568026 -2.50052332897694 1.0167388997009654 C -2.500526099196839 0.9149264132815147 -2.5830607344117356 0.8323917780675203 -2.6848732208301804 0.8323890078487308 Z" fill="#c84449" transform="matrix(1,0,0,1,0,0)" fill-rule="nonzero"></path></g><g clip-path="url(#SvgjsClipPath11268adcf477-8a01-410e-a4b3-f2422dcb3bbd)"><path d=" M -1.662549210354773 1.0167439158880582 C -1.662549210354773 1.118560329403577 -1.745087704878582 1.201098823927386 -1.8469041183941006 1.201098823927386 C -1.9487205319096197 1.201098823927386 -2.0312590264334287 1.118560329403577 -2.0312590264334287 1.0167439158880582 C -2.0312590264334287 0.9149275023725398 -1.9487205319096197 0.8323890078487306 -1.8469041183941006 0.8323890078487306 C -1.745087704878582 0.8323890078487306 -1.662549210354773 0.9149275023725398 -1.662549210354773 1.0167439158880582 Z" fill="#00b77a" transform="matrix(1,0,0,1,0,0)" fill-rule="nonzero"></path></g><g clip-path="url(#SvgjsClipPath11268adcf477-8a01-410e-a4b3-f2422dcb3bbd)"><path d=" M -0.8245750917326067 1.0167439158880582 C -0.8245750917326067 1.118560329403577 -0.9071135862564157 1.201098823927386 -1.0089299997719343 1.201098823927386 C -1.110746413287453 1.201098823927386 -1.193284907811262 1.118560329403577 -1.193284907811262 1.0167439158880582 C -1.193284907811262 0.9149275023725398 -1.110746413287453 0.8323890078487306 -1.0089299997719343 0.8323890078487306 C -0.9071135862564157 0.8323890078487306 -0.8245750917326067 0.9149275023725398 -0.8245750917326067 1.0167439158880582 Z" fill="#c84449" transform="matrix(1,0,0,1,0,0)" fill-rule="nonzero"></path></g><g clip-path="url(#SvgjsClipPath11268adcf477-8a01-410e-a4b3-f2422dcb3bbd)"><path d=" M -3.936251382527994 1.2681301320501968 C -3.9851448828694562 1.2681301320320963 -4.032035759406271 1.2875533427356625 -4.066608214689723 1.3221267387405997 C -4.101180669973178 1.356700134745537 -4.12060260477941 1.4035915397661625 -4.1206012743802285 1.4524850400895244 C -4.120601276525808 1.554299481628616 -4.03806583166283 1.6368371757105256 -3.9362513863447397 1.6368399481287481 C -3.834434978261414 1.636839948128852 -3.7518964744886656 1.554301444356104 -3.7518964744886656 1.4524850400895244 C -3.751895144047648 1.4035906706431984 -3.7713177674223983 1.356698505405119 -3.8058913076327023 1.3221249651946914 C -3.840464847843009 1.2875514249842643 -3.8873570130810187 1.2681288016093506 -3.9362513825276704 1.2681301320501968 Z" fill="#00b77a" transform="matrix(1,0,0,1,0,0)" fill-rule="nonzero"></path></g><g clip-path="url(#SvgjsClipPath11268adcf477-8a01-410e-a4b3-f2422dcb3bbd)"><path d=" M -3.0982772639058287 1.2681301320501968 C -3.2000936681724075 1.2681301320501968 -3.2826321719451554 1.3506686358229456 -3.2826321719451554 1.4524850400895244 C -3.2826294017259046 1.5543002968714275 -3.200092520688081 1.6368371779094066 -3.098277263906003 1.636839948128852 C -2.9964608596392486 1.636839948128852 -2.9139223558665 1.554301444356104 -2.9139223558665 1.4524850400895244 C -2.9139210254254824 1.4035906706431984 -2.9333436488002316 1.356698505405119 -2.967917189010537 1.3221249651946914 C -3.0024907292208423 1.2875514249842643 -3.0493828944588532 1.2681288016093506 -3.0982772639055036 1.2681301320501968 Z" fill="#c84449" transform="matrix(1,0,0,1,0,0)" fill-rule="nonzero"></path></g><g clip-path="url(#SvgjsClipPath11268adcf477-8a01-410e-a4b3-f2422dcb3bbd)"><path d=" M -2.2603081614707543 1.2681301320501968 C -2.309201661812217 1.2681301320320963 -2.3560925383490314 1.2875533427356625 -2.390664993632484 1.3221267387405997 C -2.4252374489159365 1.356700134745537 -2.444659383722171 1.4035915397661625 -2.444658053322989 1.4524850400895244 C -2.4446580554685684 1.554299481628616 -2.3621226106055904 1.6368371757105256 -2.2603081652875003 1.6368399481287481 C -2.1584909457512835 1.63683994816654 -2.075951007554668 1.5543022557713058 -2.075948237244334 1.4524850400895244 C -2.075948237244335 1.4035902093042862 -2.0953719764548815 1.3566980568878473 -2.1299463131901772 1.3221246608996318 C -2.1645206499254748 1.2875512649114171 -2.211413330840104 1.2681288016329182 -2.2603081615389993 1.2681301320501988 Z" fill="#00b77a" transform="matrix(1,0,0,1,0,0)" fill-rule="nonzero"></path></g><g clip-path="url(#SvgjsClipPath11268adcf477-8a01-410e-a4b3-f2422dcb3bbd)"><path d=" M -1.422334042848588 1.2681301320501968 C -1.4712275431900488 1.2681301320320963 -1.5181184197268651 1.2875533427356625 -1.5526908750103172 1.3221267387405997 C -1.5872633302937698 1.356700134745537 -1.6066852651000048 1.4035915397661625 -1.6066839347008224 1.4524850400895244 C -1.6066839368464003 1.554299481628616 -1.5241484919834236 1.6368371757105256 -1.4223340466653336 1.6368399481287481 C -1.3205176385820088 1.636839948128852 -1.2379791348092608 1.554301444356104 -1.2379791348092608 1.4524850400895244 C -1.237977804368243 1.4035906706431984 -1.2574004277429922 1.356698505405119 -1.2919739679532976 1.3221249651946914 C -1.326547508163603 1.2875514249842643 -1.3734396734016139 1.2681288016093506 -1.4223340428482643 1.2681301320501968 Z" fill="#c84449" transform="matrix(1,0,0,1,0,0)" fill-rule="nonzero"></path></g></g></g><defs><clipPath id="SvgjsClipPath1127"><path d=" M -4.1206012743802285 -0.4971965268159453 h 3.720601274380228 v 2.1340414911318906 h -3.720601274380228 Z"></path></clipPath><clipPath id="SvgjsClipPath11268adcf477-8a01-410e-a4b3-f2422dcb3bbd"><path d=" M -4.1206012743802285 -0.4971965268159453 L -0.40000000000000036 -0.4971965268159453 L -0.40000000000000036 1.6368449643159453 L -4.1206012743802285 1.6368449643159453 Z"></path></clipPath></defs></svg>